<svg xmlns="http://www.w3.org/2000/svg" xmlns:xlink="http://www.w3.org/1999/xlink" width="1080" zoomAndPan="magnify" viewBox="0 0 810 809.999993" height="1080" preserveAspectRatio="xMidYMid meet" version="1.0"><path fill="#ffffff" d="M 403.714844 187.910156 C 255.980469 187.910156 120.015625 255.261719 30.699219 372.664062 C 16.769531 390.953125 16.769531 416.488281 30.683594 434.75 C 120.015625 552.179688 255.980469 619.53125 403.714844 619.53125 C 551.449219 619.53125 687.414062 552.179688 776.734375 434.773438 C 790.664062 416.488281 790.664062 390.976562 776.746094 372.691406 C 687.414062 255.261719 551.449219 187.910156 403.714844 187.910156 Z M 736.058594 403.796875 C 656.472656 508.40625 535.335938 568.40625 403.714844 568.40625 C 272.09375 568.40625 150.960938 508.40625 71.375 403.644531 C 150.960938 299.035156 272.09375 239.035156 403.714844 239.035156 C 535.335938 239.035156 656.472656 299.035156 736.058594 403.644531 C 736.058594 403.65625 736.058594 403.78125 736.058594 403.796875 Z M 736.058594 403.796875 " fill-opacity="1" fill-rule="nonzero"/><path fill="#ffffff" d="M 403.714844 254.074219 C 321.199219 254.074219 254.070312 321.203125 254.070312 403.71875 C 254.070312 486.238281 321.199219 553.363281 403.714844 553.363281 C 486.234375 553.363281 553.359375 486.238281 553.359375 403.71875 C 553.359375 321.203125 486.234375 254.074219 403.714844 254.074219 Z M 403.714844 502.238281 C 349.394531 502.238281 305.199219 458.042969 305.199219 403.71875 C 305.199219 349.398438 349.394531 305.203125 403.714844 305.203125 C 458.035156 305.203125 502.234375 349.398438 502.234375 403.71875 C 502.234375 458.042969 458.035156 502.238281 403.714844 502.238281 Z M 403.714844 502.238281 " fill-opacity="1" fill-rule="nonzero"/></svg>