<svg xmlns="http://www.w3.org/2000/svg" xmlns:xlink="http://www.w3.org/1999/xlink" width="1080" zoomAndPan="magnify" viewBox="0 0 810 809.999993" height="1080" preserveAspectRatio="xMidYMid meet" version="1.0"><defs><clipPath id="3c4cacf442"><path d="M 30.453125 30.453125 L 779.703125 30.453125 L 779.703125 779.703125 L 30.453125 779.703125 Z M 30.453125 30.453125 " clip-rule="nonzero"/></clipPath></defs><g clip-path="url(#3c4cacf442)"><path fill="#ffffff" d="M 404.996094 30.453125 C 398.867188 30.453125 392.742188 30.605469 386.621094 30.90625 C 380.496094 31.207031 374.386719 31.65625 368.285156 32.257812 C 362.1875 32.859375 356.105469 33.609375 350.039062 34.507812 C 343.976562 35.40625 337.941406 36.457031 331.929688 37.652344 C 325.914062 38.847656 319.9375 40.191406 313.992188 41.679688 C 308.046875 43.167969 302.140625 44.804688 296.273438 46.582031 C 290.40625 48.363281 284.589844 50.285156 278.816406 52.347656 C 273.046875 54.414062 267.328125 56.621094 261.667969 58.964844 C 256.003906 61.3125 250.402344 63.792969 244.859375 66.414062 C 239.320312 69.035156 233.84375 71.789062 228.4375 74.679688 C 223.035156 77.570312 217.703125 80.589844 212.445312 83.742188 C 207.1875 86.894531 202.007812 90.171875 196.914062 93.578125 C 191.816406 96.980469 186.804688 100.511719 181.882812 104.160156 C 176.960938 107.8125 172.128906 111.582031 167.390625 115.472656 C 162.652344 119.359375 158.011719 123.363281 153.46875 127.480469 C 148.929688 131.597656 144.488281 135.820312 140.15625 140.15625 C 135.820312 144.488281 131.597656 148.929688 127.480469 153.46875 C 123.363281 158.011719 119.359375 162.652344 115.472656 167.390625 C 111.582031 172.128906 107.8125 176.960938 104.160156 181.882812 C 100.511719 186.804688 96.980469 191.816406 93.578125 196.914062 C 90.171875 202.007812 86.894531 207.1875 83.742188 212.445312 C 80.589844 217.703125 77.570312 223.035156 74.679688 228.4375 C 71.789062 233.84375 69.035156 239.320312 66.414062 244.859375 C 63.792969 250.402344 61.3125 256.003906 58.964844 261.667969 C 56.621094 267.328125 54.414062 273.046875 52.347656 278.816406 C 50.285156 284.589844 48.363281 290.40625 46.582031 296.273438 C 44.804688 302.140625 43.167969 308.046875 41.679688 313.992188 C 40.191406 319.9375 38.847656 325.917969 37.652344 331.929688 C 36.457031 337.941406 35.40625 343.976562 34.507812 350.039062 C 33.609375 356.105469 32.859375 362.1875 32.257812 368.285156 C 31.65625 374.386719 31.207031 380.496094 30.90625 386.621094 C 30.605469 392.742188 30.453125 398.867188 30.453125 404.996094 C 30.453125 411.128906 30.605469 417.253906 30.90625 423.375 C 31.207031 429.496094 31.65625 435.609375 32.257812 441.710938 C 32.859375 447.808594 33.609375 453.890625 34.507812 459.953125 C 35.40625 466.019531 36.457031 472.054688 37.652344 478.066406 C 38.847656 484.078125 40.191406 490.058594 41.679688 496.003906 C 43.167969 501.949219 44.804688 507.855469 46.582031 513.722656 C 48.363281 519.585938 50.285156 525.40625 52.347656 531.175781 C 54.414062 536.949219 56.621094 542.664062 58.964844 548.328125 C 61.3125 553.992188 63.792969 559.59375 66.414062 565.136719 C 69.035156 570.675781 71.789062 576.148438 74.679688 581.554688 C 77.570312 586.960938 80.589844 592.292969 83.742188 597.550781 C 86.894531 602.808594 90.171875 607.984375 93.578125 613.082031 C 96.980469 618.179688 100.511719 623.1875 104.160156 628.113281 C 107.8125 633.035156 111.582031 637.867188 115.472656 642.605469 C 119.359375 647.34375 123.363281 651.984375 127.480469 656.523438 C 131.597656 661.066406 135.820312 665.503906 140.15625 669.839844 C 144.488281 674.171875 148.929688 678.398438 153.46875 682.515625 C 158.011719 686.632812 162.652344 690.632812 167.390625 694.523438 C 172.128906 698.410156 176.960938 702.183594 181.882812 705.832031 C 186.804688 709.484375 191.816406 713.011719 196.914062 716.417969 C 202.007812 719.824219 207.1875 723.101562 212.445312 726.253906 C 217.703125 729.40625 223.035156 732.425781 228.4375 735.316406 C 233.84375 738.203125 239.320312 740.960938 244.859375 743.582031 C 250.402344 746.199219 256.003906 748.683594 261.667969 751.03125 C 267.328125 753.375 273.046875 755.582031 278.816406 757.644531 C 284.589844 759.710938 290.40625 761.632812 296.273438 763.414062 C 302.140625 765.191406 308.046875 766.828125 313.992188 768.316406 C 319.9375 769.804688 325.914062 771.148438 331.929688 772.34375 C 337.941406 773.539062 343.976562 774.585938 350.039062 775.488281 C 356.105469 776.386719 362.1875 777.136719 368.285156 777.738281 C 374.386719 778.339844 380.496094 778.789062 386.621094 779.089844 C 392.742188 779.390625 398.867188 779.539062 404.996094 779.539062 C 411.128906 779.539062 417.253906 779.390625 423.375 779.089844 C 429.496094 778.789062 435.609375 778.339844 441.710938 777.738281 C 447.808594 777.136719 453.890625 776.386719 459.953125 775.488281 C 466.019531 774.585938 472.054688 773.539062 478.066406 772.34375 C 484.078125 771.148438 490.058594 769.804688 496.003906 768.316406 C 501.949219 766.828125 507.855469 765.191406 513.722656 763.414062 C 519.585938 761.632812 525.40625 759.710938 531.175781 757.644531 C 536.949219 755.582031 542.664062 753.375 548.328125 751.03125 C 553.992188 748.683594 559.59375 746.199219 565.136719 743.582031 C 570.675781 740.960938 576.148438 738.203125 581.554688 735.316406 C 586.960938 732.425781 592.292969 729.40625 597.550781 726.253906 C 602.808594 723.101562 607.984375 719.824219 613.082031 716.417969 C 618.179688 713.011719 623.1875 709.484375 628.113281 705.832031 C 633.035156 702.183594 637.867188 698.410156 642.605469 694.523438 C 647.34375 690.632812 651.984375 686.632812 656.523438 682.515625 C 661.066406 678.398438 665.503906 674.171875 669.839844 669.839844 C 674.171875 665.503906 678.398438 661.066406 682.515625 656.523438 C 686.632812 651.984375 690.632812 647.34375 694.523438 642.605469 C 698.410156 637.867188 702.183594 633.035156 705.832031 628.113281 C 709.484375 623.1875 713.011719 618.179688 716.417969 613.082031 C 719.824219 607.984375 723.101562 602.808594 726.253906 597.550781 C 729.40625 592.292969 732.425781 586.960938 735.316406 581.554688 C 738.203125 576.148438 740.960938 570.675781 743.582031 565.136719 C 746.199219 559.59375 748.683594 553.992188 751.03125 548.328125 C 753.375 542.664062 755.582031 536.949219 757.644531 531.175781 C 759.710938 525.40625 761.632812 519.585938 763.414062 513.722656 C 765.191406 507.855469 766.828125 501.949219 768.316406 496.003906 C 769.804688 490.058594 771.148438 484.078125 772.34375 478.066406 C 773.539062 472.054688 774.585938 466.019531 775.488281 459.953125 C 776.386719 453.890625 777.136719 447.808594 777.738281 441.710938 C 778.335938 435.609375 778.789062 429.496094 779.089844 423.375 C 779.390625 417.253906 779.539062 411.128906 779.539062 404.996094 C 779.535156 398.871094 779.375 392.746094 779.070312 386.625 C 778.761719 380.507812 778.304688 374.398438 777.699219 368.300781 C 777.089844 362.203125 776.335938 356.121094 775.429688 350.0625 C 774.527344 344 773.472656 337.96875 772.273438 331.957031 C 771.070312 325.949219 769.722656 319.972656 768.230469 314.03125 C 766.738281 308.085938 765.097656 302.183594 763.316406 296.320312 C 761.53125 290.460938 759.609375 284.644531 757.539062 278.875 C 755.472656 273.105469 753.261719 267.394531 750.914062 261.734375 C 748.566406 256.074219 746.082031 250.472656 743.457031 244.9375 C 740.835938 239.398438 738.078125 233.925781 735.1875 228.523438 C 732.296875 223.121094 729.273438 217.792969 726.125 212.539062 C 722.972656 207.285156 719.691406 202.109375 716.285156 197.015625 C 712.878906 191.921875 709.351562 186.914062 705.699219 181.992188 C 702.050781 177.070312 698.277344 172.242188 694.390625 167.507812 C 690.503906 162.769531 686.5 158.132812 682.386719 153.589844 C 678.269531 149.050781 674.046875 144.613281 669.714844 140.28125 C 665.378906 135.949219 660.945312 131.726562 656.402344 127.609375 C 651.863281 123.492188 647.226562 119.492188 642.488281 115.605469 C 637.753906 111.714844 632.925781 107.945312 628.003906 104.296875 C 623.082031 100.644531 618.074219 97.113281 612.980469 93.710938 C 607.886719 90.304688 602.710938 87.023438 597.457031 83.871094 C 592.203125 80.71875 586.875 77.699219 581.46875 74.808594 C 576.066406 71.917969 570.597656 69.160156 565.058594 66.535156 C 559.519531 63.914062 553.921875 61.429688 548.261719 59.082031 C 542.601562 56.730469 536.886719 54.523438 531.121094 52.457031 C 525.351562 50.386719 519.535156 48.460938 513.671875 46.679688 C 507.8125 44.894531 501.90625 43.257812 495.964844 41.765625 C 490.023438 40.269531 484.046875 38.921875 478.039062 37.722656 C 472.027344 36.523438 465.992188 35.46875 459.933594 34.566406 C 453.871094 33.660156 447.792969 32.902344 441.695312 32.296875 C 435.597656 31.691406 429.488281 31.234375 423.371094 30.925781 C 417.25 30.617188 411.125 30.460938 404.996094 30.453125 Z M 404.996094 721.917969 C 399.8125 721.917969 394.628906 721.792969 389.445312 721.535156 C 384.265625 721.28125 379.09375 720.902344 373.933594 720.390625 C 368.773438 719.882812 363.625 719.25 358.496094 718.488281 C 353.363281 717.726562 348.257812 716.839844 343.167969 715.828125 C 338.082031 714.816406 333.023438 713.679688 327.992188 712.421875 C 322.960938 711.160156 317.964844 709.777344 313 708.273438 C 308.035156 706.765625 303.113281 705.140625 298.230469 703.394531 C 293.347656 701.644531 288.507812 699.777344 283.71875 697.792969 C 278.925781 695.808594 274.183594 693.707031 269.496094 691.492188 C 264.808594 689.273438 260.175781 686.941406 255.601562 684.496094 C 251.027344 682.050781 246.515625 679.496094 242.066406 676.828125 C 237.617188 674.164062 233.238281 671.390625 228.925781 668.507812 C 224.613281 665.625 220.375 662.640625 216.207031 659.550781 C 212.042969 656.460938 207.953125 653.269531 203.945312 649.980469 C 199.9375 646.691406 196.007812 643.304688 192.167969 639.820312 C 188.324219 636.335938 184.566406 632.761719 180.902344 629.09375 C 177.234375 625.425781 173.65625 621.671875 170.175781 617.828125 C 166.691406 613.984375 163.304688 610.058594 160.015625 606.050781 C 156.722656 602.039062 153.535156 597.953125 150.445312 593.789062 C 147.355469 589.621094 144.367188 585.382812 141.488281 581.070312 C 138.605469 576.757812 135.832031 572.375 133.164062 567.925781 C 130.5 563.480469 127.941406 558.96875 125.5 554.394531 C 123.054688 549.820312 120.722656 545.1875 118.503906 540.5 C 116.285156 535.808594 114.1875 531.070312 112.199219 526.277344 C 110.214844 521.484375 108.351562 516.648438 106.601562 511.765625 C 104.855469 506.882812 103.230469 501.957031 101.722656 496.996094 C 100.21875 492.03125 98.835938 487.035156 97.574219 482.003906 C 96.3125 476.972656 95.179688 471.914062 94.167969 466.824219 C 93.152344 461.738281 92.269531 456.628906 91.507812 451.5 C 90.746094 446.367188 90.109375 441.222656 89.601562 436.0625 C 89.09375 430.898438 88.710938 425.730469 88.457031 420.546875 C 88.203125 415.367188 88.078125 410.183594 88.078125 404.996094 C 88.078125 399.8125 88.203125 394.628906 88.457031 389.445312 C 88.710938 384.265625 89.09375 379.09375 89.601562 373.933594 C 90.109375 368.773438 90.746094 363.625 91.507812 358.496094 C 92.269531 353.363281 93.152344 348.257812 94.167969 343.167969 C 95.179688 338.082031 96.3125 333.023438 97.574219 327.992188 C 98.835938 322.960938 100.21875 317.964844 101.722656 313 C 103.230469 308.035156 104.855469 303.113281 106.601562 298.230469 C 108.351562 293.347656 110.214844 288.507812 112.199219 283.71875 C 114.1875 278.925781 116.285156 274.183594 118.503906 269.496094 C 120.722656 264.808594 123.054688 260.175781 125.5 255.601562 C 127.941406 251.027344 130.5 246.515625 133.164062 242.066406 C 135.832031 237.617188 138.605469 233.238281 141.488281 228.925781 C 144.367188 224.613281 147.355469 220.375 150.445312 216.207031 C 153.535156 212.042969 156.722656 207.953125 160.015625 203.945312 C 163.304688 199.9375 166.691406 196.007812 170.175781 192.167969 C 173.65625 188.324219 177.234375 184.566406 180.902344 180.902344 C 184.566406 177.234375 188.324219 173.65625 192.167969 170.175781 C 196.007812 166.691406 199.9375 163.304688 203.945312 160.015625 C 207.953125 156.722656 212.042969 153.535156 216.207031 150.445312 C 220.375 147.355469 224.613281 144.367188 228.925781 141.488281 C 233.238281 138.605469 237.617188 135.832031 242.066406 133.164062 C 246.515625 130.5 251.027344 127.941406 255.601562 125.5 C 260.175781 123.054688 264.808594 120.722656 269.496094 118.503906 C 274.183594 116.285156 278.925781 114.1875 283.71875 112.199219 C 288.507812 110.214844 293.347656 108.351562 298.230469 106.601562 C 303.113281 104.855469 308.035156 103.230469 313 101.722656 C 317.964844 100.21875 322.960938 98.835938 327.992188 97.574219 C 333.023438 96.3125 338.082031 95.179688 343.167969 94.167969 C 348.257812 93.15625 353.363281 92.269531 358.496094 91.507812 C 363.625 90.746094 368.773438 90.109375 373.933594 89.601562 C 379.09375 89.09375 384.265625 88.714844 389.445312 88.457031 C 394.628906 88.203125 399.8125 88.078125 404.996094 88.078125 C 410.183594 88.078125 415.367188 88.203125 420.546875 88.457031 C 425.730469 88.714844 430.898438 89.09375 436.0625 89.601562 C 441.222656 90.109375 446.367188 90.746094 451.5 91.507812 C 456.628906 92.269531 461.738281 93.15625 466.824219 94.167969 C 471.914062 95.179688 476.972656 96.3125 482.003906 97.574219 C 487.035156 98.835938 492.03125 100.21875 496.996094 101.722656 C 501.957031 103.230469 506.882812 104.855469 511.765625 106.601562 C 516.648438 108.351562 521.484375 110.214844 526.277344 112.199219 C 531.070312 114.1875 535.808594 116.285156 540.5 118.503906 C 545.1875 120.722656 549.820312 123.054688 554.394531 125.5 C 558.96875 127.941406 563.480469 130.5 567.925781 133.164062 C 572.375 135.832031 576.757812 138.605469 581.070312 141.488281 C 585.382812 144.367188 589.621094 147.355469 593.785156 150.445312 C 597.953125 153.535156 602.039062 156.722656 606.050781 160.015625 C 610.058594 163.304688 613.984375 166.691406 617.828125 170.175781 C 621.671875 173.65625 625.425781 177.234375 629.09375 180.902344 C 632.761719 184.566406 636.335938 188.324219 639.820312 192.167969 C 643.304688 196.007812 646.691406 199.9375 649.980469 203.945312 C 653.269531 207.953125 656.460938 212.042969 659.550781 216.207031 C 662.640625 220.375 665.625 224.613281 668.507812 228.925781 C 671.390625 233.238281 674.164062 237.617188 676.828125 242.066406 C 679.496094 246.515625 682.050781 251.027344 684.496094 255.601562 C 686.941406 260.175781 689.273438 264.808594 691.492188 269.496094 C 693.707031 274.183594 695.808594 278.925781 697.792969 283.71875 C 699.777344 288.507812 701.644531 293.347656 703.390625 298.230469 C 705.140625 303.113281 706.765625 308.035156 708.273438 313 C 709.777344 317.964844 711.160156 322.960938 712.421875 327.992188 C 713.679688 333.023438 714.816406 338.082031 715.828125 343.167969 C 716.839844 348.257812 717.726562 353.363281 718.488281 358.496094 C 719.25 363.625 719.882812 368.773438 720.390625 373.933594 C 720.902344 379.09375 721.28125 384.265625 721.535156 389.445312 C 721.792969 394.628906 721.917969 399.8125 721.917969 404.996094 C 721.914062 410.183594 721.777344 415.363281 721.519531 420.542969 C 721.257812 425.722656 720.871094 430.890625 720.359375 436.050781 C 719.84375 441.210938 719.207031 446.351562 718.441406 451.480469 C 717.675781 456.609375 716.78125 461.714844 715.765625 466.800781 C 714.75 471.882812 713.609375 476.941406 712.347656 481.96875 C 711.082031 486.996094 709.695312 491.992188 708.1875 496.953125 C 706.679688 501.914062 705.050781 506.835938 703.300781 511.714844 C 701.550781 516.597656 699.679688 521.429688 697.695312 526.21875 C 695.707031 531.007812 693.605469 535.746094 691.386719 540.433594 C 689.164062 545.117188 686.832031 549.746094 684.386719 554.320312 C 681.941406 558.890625 679.382812 563.398438 676.714844 567.847656 C 674.050781 572.292969 671.273438 576.671875 668.394531 580.980469 C 665.511719 585.292969 662.523438 589.527344 659.433594 593.691406 C 656.347656 597.855469 653.15625 601.941406 649.867188 605.949219 C 646.578125 609.957031 643.191406 613.882812 639.707031 617.722656 C 636.226562 621.566406 632.652344 625.320312 628.984375 628.984375 C 625.320312 632.652344 621.566406 636.226562 617.722656 639.707031 C 613.882812 643.191406 609.957031 646.578125 605.949219 649.867188 C 601.941406 653.15625 597.855469 656.347656 593.691406 659.4375 C 589.527344 662.523438 585.292969 665.511719 580.980469 668.394531 C 576.671875 671.273438 572.292969 674.050781 567.847656 676.714844 C 563.398438 679.382812 558.890625 681.941406 554.320312 684.386719 C 549.746094 686.832031 545.117188 689.164062 540.433594 691.386719 C 535.746094 693.605469 531.007812 695.707031 526.21875 697.695312 C 521.429688 699.679688 516.597656 701.550781 511.714844 703.300781 C 506.835938 705.050781 501.914062 706.679688 496.953125 708.1875 C 491.992188 709.695312 486.996094 711.082031 481.96875 712.347656 C 476.941406 713.609375 471.882812 714.75 466.800781 715.765625 C 461.714844 716.785156 456.609375 717.675781 451.480469 718.441406 C 446.351562 719.207031 441.210938 719.84375 436.050781 720.359375 C 430.890625 720.871094 425.722656 721.257812 420.542969 721.519531 C 415.363281 721.78125 410.183594 721.914062 404.996094 721.917969 Z M 404.996094 721.917969 " fill-opacity="1" fill-rule="nonzero"/></g><path fill="#ffffff" d="M 425.65625 205.136719 C 423.585938 204.757812 421.507812 204.4375 419.421875 204.175781 C 417.335938 203.914062 415.242188 203.707031 413.144531 203.558594 C 411.046875 203.410156 408.945312 203.316406 406.84375 203.285156 C 404.742188 203.25 402.640625 203.273438 400.539062 203.355469 C 398.4375 203.4375 396.339844 203.574219 394.246094 203.773438 C 392.152344 203.96875 390.0625 204.222656 387.984375 204.53125 C 385.902344 204.84375 383.832031 205.210938 381.773438 205.632812 C 379.714844 206.058594 377.667969 206.539062 375.632812 207.074219 C 373.597656 207.609375 371.582031 208.199219 369.582031 208.847656 C 367.578125 209.492188 365.597656 210.191406 363.632812 210.949219 C 361.671875 211.703125 359.730469 212.511719 357.8125 213.371094 C 355.894531 214.234375 354 215.144531 352.128906 216.109375 C 350.261719 217.074219 348.421875 218.089844 346.609375 219.15625 C 344.792969 220.222656 343.011719 221.335938 341.257812 222.5 C 339.507812 223.664062 337.789062 224.871094 336.101562 226.128906 C 334.417969 227.386719 332.765625 228.691406 331.152344 230.039062 C 329.539062 231.386719 327.960938 232.777344 326.421875 234.210938 C 324.882812 235.644531 323.386719 237.117188 321.929688 238.632812 C 320.46875 240.148438 319.054688 241.703125 317.683594 243.296875 C 316.308594 244.890625 314.980469 246.523438 313.699219 248.1875 C 312.414062 249.855469 311.179688 251.554688 309.988281 253.289062 C 308.796875 255.019531 307.65625 256.785156 306.5625 258.582031 C 305.46875 260.378906 304.425781 262.203125 303.429688 264.058594 C 302.4375 265.910156 301.496094 267.789062 300.605469 269.695312 C 299.714844 271.601562 298.875 273.527344 298.089844 275.480469 C 297.304688 277.429688 296.574219 279.402344 295.894531 281.390625 C 295.21875 283.382812 294.597656 285.390625 294.027344 287.417969 C 293.460938 289.441406 292.949219 291.480469 292.492188 293.535156 C 292.039062 295.585938 291.636719 297.652344 291.296875 299.726562 C 290.953125 301.800781 290.667969 303.882812 290.4375 305.972656 C 290.207031 308.066406 290.039062 310.160156 289.921875 312.261719 C 289.808594 314.359375 289.753906 316.460938 289.753906 318.566406 L 347.375 318.566406 C 347.375 317.507812 347.402344 316.453125 347.460938 315.398438 C 347.515625 314.347656 347.601562 313.292969 347.71875 312.246094 C 347.832031 311.195312 347.976562 310.148438 348.148438 309.109375 C 348.320312 308.066406 348.523438 307.03125 348.75 306 C 348.980469 304.96875 349.238281 303.949219 349.523438 302.929688 C 349.808594 301.914062 350.121094 300.90625 350.460938 299.90625 C 350.804688 298.910156 351.171875 297.921875 351.566406 296.941406 C 351.960938 295.960938 352.382812 294.996094 352.832031 294.039062 C 353.28125 293.082031 353.753906 292.140625 354.253906 291.210938 C 354.753906 290.28125 355.28125 289.367188 355.832031 288.464844 C 356.382812 287.566406 356.957031 286.679688 357.554688 285.8125 C 358.15625 284.941406 358.777344 284.089844 359.421875 283.253906 C 360.070312 282.421875 360.738281 281.605469 361.429688 280.804688 C 362.117188 280.007812 362.832031 279.230469 363.566406 278.46875 C 364.296875 277.710938 365.050781 276.972656 365.828125 276.253906 C 366.601562 275.539062 367.394531 274.839844 368.207031 274.167969 C 369.019531 273.492188 369.847656 272.84375 370.699219 272.214844 C 371.546875 271.585938 372.410156 270.980469 373.292969 270.402344 C 374.171875 269.820312 375.070312 269.261719 375.980469 268.730469 C 376.894531 268.199219 377.820312 267.695312 378.761719 267.214844 C 379.699219 266.734375 380.652344 266.277344 381.617188 265.851562 C 382.582031 265.421875 383.558594 265.019531 384.542969 264.644531 C 385.53125 264.269531 386.527344 263.921875 387.535156 263.605469 C 388.539062 263.285156 389.554688 262.992188 390.574219 262.726562 C 391.597656 262.464844 392.625 262.226562 393.660156 262.019531 C 394.695312 261.8125 395.734375 261.632812 396.78125 261.480469 C 397.824219 261.332031 398.875 261.210938 399.925781 261.117188 C 400.976562 261.023438 402.03125 260.960938 403.085938 260.925781 C 404.140625 260.890625 405.195312 260.882812 406.25 260.90625 C 407.304688 260.929688 408.359375 260.980469 409.414062 261.0625 C 410.464844 261.144531 411.515625 261.253906 412.5625 261.390625 C 413.605469 261.53125 414.648438 261.699219 415.6875 261.894531 C 418.445312 262.410156 421.152344 263.121094 423.804688 264.03125 C 426.460938 264.945312 429.035156 266.042969 431.527344 267.328125 C 434.023438 268.617188 436.410156 270.078125 438.691406 271.714844 C 440.972656 273.351562 443.121094 275.144531 445.140625 277.09375 C 447.15625 279.042969 449.023438 281.128906 450.738281 283.351562 C 452.449219 285.574219 453.992188 287.910156 455.367188 290.355469 C 456.738281 292.804688 457.925781 295.339844 458.929688 297.960938 C 459.929688 300.582031 460.738281 303.261719 461.347656 306.003906 C 461.957031 308.742188 462.367188 311.511719 462.570312 314.308594 C 462.777344 317.109375 462.777344 319.90625 462.574219 322.707031 C 462.371094 325.503906 461.964844 328.273438 461.359375 331.015625 C 460.75 333.753906 459.945312 336.4375 458.949219 339.058594 C 457.949219 341.679688 456.761719 344.214844 455.394531 346.667969 C 454.023438 349.117188 452.480469 351.453125 450.769531 353.675781 C 449.058594 355.902344 447.195312 357.988281 445.179688 359.941406 C 443.160156 361.890625 441.015625 363.6875 438.734375 365.324219 C 436.386719 366.921875 434.089844 368.585938 431.84375 370.316406 C 429.59375 372.050781 427.398438 373.847656 425.257812 375.710938 C 423.117188 377.578125 421.035156 379.5 419.007812 381.488281 C 416.984375 383.476562 415.019531 385.523438 413.113281 387.628906 C 411.210938 389.734375 409.371094 391.894531 407.59375 394.109375 C 405.820312 396.324219 404.113281 398.589844 402.472656 400.90625 C 400.832031 403.222656 399.261719 405.585938 397.761719 407.996094 C 396.265625 410.40625 394.839844 412.859375 393.484375 415.351562 C 392.132812 417.847656 390.855469 420.382812 389.652344 422.953125 C 388.449219 425.523438 387.328125 428.128906 386.28125 430.765625 C 385.234375 433.40625 384.265625 436.074219 383.378906 438.769531 C 382.492188 441.464844 381.683594 444.183594 380.960938 446.929688 C 380.234375 449.671875 379.589844 452.4375 379.03125 455.21875 C 378.46875 458 377.992188 460.796875 377.597656 463.609375 C 377.203125 466.417969 376.894531 469.238281 376.667969 472.066406 C 376.441406 474.898438 376.300781 477.730469 376.246094 480.570312 L 376.246094 491.429688 L 433.867188 491.429688 L 433.867188 480.570312 C 433.996094 477.164062 434.324219 473.777344 434.855469 470.410156 C 435.386719 467.042969 436.113281 463.71875 437.042969 460.4375 C 437.96875 457.160156 439.085938 453.945312 440.394531 450.796875 C 441.703125 447.648438 443.195312 444.589844 444.867188 441.621094 C 446.539062 438.652344 448.382812 435.792969 450.394531 433.042969 C 452.410156 430.289062 454.578125 427.667969 456.902344 425.175781 C 459.226562 422.683594 461.691406 420.339844 464.296875 418.140625 C 466.902344 415.941406 469.625 413.902344 472.472656 412.027344 C 474.75 410.386719 476.964844 408.664062 479.117188 406.863281 C 481.269531 405.058594 483.351562 403.179688 485.367188 401.226562 C 487.382812 399.269531 489.324219 397.242188 491.1875 395.148438 C 493.054688 393.050781 494.84375 390.886719 496.550781 388.660156 C 498.261719 386.433594 499.886719 384.144531 501.425781 381.800781 C 502.96875 379.453125 504.421875 377.054688 505.789062 374.601562 C 507.152344 372.148438 508.429688 369.648438 509.613281 367.101562 C 510.796875 364.558594 511.882812 361.972656 512.878906 359.347656 C 513.875 356.722656 514.769531 354.0625 515.570312 351.371094 C 516.371094 348.683594 517.070312 345.964844 517.675781 343.222656 C 518.277344 340.480469 518.777344 337.71875 519.175781 334.941406 C 519.578125 332.164062 519.875 329.375 520.070312 326.574219 C 520.265625 323.773438 520.359375 320.96875 520.351562 318.160156 C 520.34375 315.355469 520.230469 312.550781 520.019531 309.75 C 519.804688 306.953125 519.488281 304.164062 519.070312 301.386719 C 518.652344 298.613281 518.136719 295.855469 517.515625 293.117188 C 516.898438 290.378906 516.179688 287.667969 515.363281 284.980469 C 514.546875 282.296875 513.632812 279.644531 512.621094 277.023438 C 511.609375 274.40625 510.503906 271.824219 509.304688 269.289062 C 508.105469 266.75 506.816406 264.257812 505.433594 261.816406 C 504.050781 259.371094 502.582031 256.980469 501.027344 254.644531 C 499.472656 252.308594 497.832031 250.03125 496.109375 247.8125 C 494.386719 245.597656 492.585938 243.445312 490.707031 241.359375 C 488.828125 239.273438 486.875 237.261719 484.847656 235.320312 C 482.820312 233.375 480.726562 231.511719 478.5625 229.722656 C 476.398438 227.933594 474.171875 226.222656 471.886719 224.597656 C 469.597656 222.96875 467.253906 221.429688 464.851562 219.972656 C 462.453125 218.519531 460 217.152344 457.5 215.875 C 455 214.601562 452.457031 213.417969 449.871094 212.328125 C 447.28125 211.238281 444.660156 210.242188 442 209.34375 C 439.339844 208.445312 436.652344 207.644531 433.933594 206.941406 C 431.214844 206.238281 428.476562 205.636719 425.710938 205.136719 Z M 425.65625 205.136719 " fill-opacity="1" fill-rule="nonzero"/><path fill="#ffffff" d="M 433.808594 577.863281 C 433.808594 578.808594 433.761719 579.75 433.667969 580.6875 C 433.578125 581.625 433.4375 582.558594 433.253906 583.484375 C 433.070312 584.410156 432.84375 585.324219 432.566406 586.226562 C 432.292969 587.128906 431.976562 588.015625 431.617188 588.890625 C 431.253906 589.761719 430.851562 590.613281 430.40625 591.445312 C 429.960938 592.277344 429.476562 593.085938 428.953125 593.871094 C 428.429688 594.65625 427.867188 595.410156 427.269531 596.140625 C 426.671875 596.871094 426.039062 597.570312 425.371094 598.234375 C 424.703125 598.902344 424.003906 599.535156 423.273438 600.136719 C 422.546875 600.734375 421.789062 601.292969 421.003906 601.820312 C 420.21875 602.34375 419.410156 602.828125 418.578125 603.273438 C 417.746094 603.71875 416.894531 604.121094 416.023438 604.480469 C 415.152344 604.84375 414.265625 605.160156 413.359375 605.433594 C 412.457031 605.707031 411.542969 605.9375 410.617188 606.121094 C 409.691406 606.304688 408.761719 606.445312 407.820312 606.535156 C 406.882812 606.628906 405.941406 606.675781 404.996094 606.675781 C 404.054688 606.675781 403.113281 606.628906 402.171875 606.535156 C 401.234375 606.445312 400.300781 606.304688 399.375 606.121094 C 398.453125 605.9375 397.539062 605.707031 396.632812 605.433594 C 395.730469 605.160156 394.84375 604.84375 393.972656 604.480469 C 393.101562 604.121094 392.25 603.71875 391.417969 603.273438 C 390.582031 602.828125 389.777344 602.34375 388.992188 601.820312 C 388.207031 601.292969 387.449219 600.734375 386.71875 600.136719 C 385.992188 599.535156 385.292969 598.902344 384.625 598.234375 C 383.957031 597.570312 383.324219 596.871094 382.726562 596.140625 C 382.128906 595.410156 381.566406 594.65625 381.042969 593.871094 C 380.519531 593.085938 380.035156 592.277344 379.589844 591.445312 C 379.144531 590.613281 378.742188 589.761719 378.378906 588.890625 C 378.019531 588.015625 377.699219 587.128906 377.425781 586.226562 C 377.152344 585.324219 376.925781 584.410156 376.738281 583.484375 C 376.554688 582.558594 376.417969 581.625 376.324219 580.6875 C 376.234375 579.75 376.1875 578.808594 376.1875 577.863281 C 376.1875 576.921875 376.234375 575.980469 376.324219 575.039062 C 376.417969 574.101562 376.554688 573.167969 376.738281 572.242188 C 376.925781 571.316406 377.152344 570.402344 377.425781 569.5 C 377.699219 568.597656 378.019531 567.710938 378.378906 566.839844 C 378.742188 565.964844 379.144531 565.113281 379.589844 564.28125 C 380.035156 563.449219 380.519531 562.640625 381.042969 561.855469 C 381.566406 561.074219 382.128906 560.316406 382.726562 559.585938 C 383.324219 558.855469 383.957031 558.160156 384.625 557.492188 C 385.292969 556.824219 385.992188 556.191406 386.71875 555.59375 C 387.449219 554.992188 388.207031 554.433594 388.992188 553.90625 C 389.777344 553.382812 390.582031 552.898438 391.417969 552.453125 C 392.25 552.011719 393.101562 551.605469 393.972656 551.246094 C 394.84375 550.882812 395.730469 550.566406 396.632812 550.292969 C 397.539062 550.019531 398.453125 549.789062 399.375 549.605469 C 400.300781 549.421875 401.234375 549.285156 402.171875 549.191406 C 403.113281 549.097656 404.054688 549.050781 404.996094 549.050781 C 405.941406 549.050781 406.882812 549.097656 407.820312 549.191406 C 408.761719 549.285156 409.691406 549.421875 410.617188 549.605469 C 411.542969 549.789062 412.457031 550.019531 413.359375 550.292969 C 414.265625 550.566406 415.152344 550.882812 416.023438 551.246094 C 416.894531 551.605469 417.746094 552.011719 418.578125 552.453125 C 419.410156 552.898438 420.21875 553.382812 421.003906 553.90625 C 421.789062 554.433594 422.546875 554.992188 423.273438 555.59375 C 424.003906 556.191406 424.703125 556.824219 425.371094 557.492188 C 426.039062 558.160156 426.671875 558.855469 427.269531 559.585938 C 427.867188 560.316406 428.429688 561.074219 428.953125 561.855469 C 429.476562 562.640625 429.960938 563.449219 430.40625 564.28125 C 430.851562 565.113281 431.253906 565.964844 431.617188 566.839844 C 431.976562 567.710938 432.292969 568.597656 432.566406 569.5 C 432.84375 570.402344 433.070312 571.316406 433.253906 572.242188 C 433.4375 573.167969 433.578125 574.101562 433.667969 575.039062 C 433.761719 575.980469 433.808594 576.921875 433.808594 577.863281 Z M 433.808594 577.863281 " fill-opacity="1" fill-rule="nonzero"/></svg>