<svg xmlns="http://www.w3.org/2000/svg" xmlns:xlink="http://www.w3.org/1999/xlink" width="1080" zoomAndPan="magnify" viewBox="0 0 810 809.999993" height="1080" preserveAspectRatio="xMidYMid meet" version="1.0"><defs><clipPath id="4f63b2b5ac"><path d="M 96 26.164062 L 714 26.164062 L 714 783.664062 L 96 783.664062 Z M 96 26.164062 " clip-rule="nonzero"/></clipPath></defs><g clip-path="url(#4f63b2b5ac)"><path fill="#ffffff" d="M 352.328125 470.4375 L 523.640625 298.960938 C 524.085938 298.535156 524.546875 298.132812 525.027344 297.753906 C 525.511719 297.371094 526.007812 297.015625 526.523438 296.679688 C 527.039062 296.347656 527.570312 296.039062 528.113281 295.757812 C 528.660156 295.472656 529.214844 295.21875 529.785156 294.988281 C 530.355469 294.757812 530.933594 294.554688 531.523438 294.382812 C 532.109375 294.207031 532.707031 294.058594 533.308594 293.941406 C 533.910156 293.824219 534.515625 293.734375 535.128906 293.675781 C 535.738281 293.613281 536.351562 293.582031 536.964844 293.582031 C 537.578125 293.582031 538.191406 293.609375 538.800781 293.664062 C 539.414062 293.71875 540.019531 293.804688 540.625 293.921875 C 541.226562 294.035156 541.824219 294.175781 542.414062 294.347656 C 543.003906 294.519531 543.582031 294.71875 544.152344 294.945312 C 544.722656 295.171875 545.28125 295.425781 545.828125 295.703125 C 546.375 295.984375 546.90625 296.289062 547.425781 296.617188 C 547.941406 296.949219 548.441406 297.304688 548.925781 297.679688 C 549.410156 298.058594 549.875 298.460938 550.320312 298.882812 C 550.757812 299.316406 551.171875 299.773438 551.566406 300.25 C 551.957031 300.730469 552.324219 301.222656 552.667969 301.738281 C 553.011719 302.25 553.332031 302.777344 553.621094 303.324219 C 553.914062 303.867188 554.179688 304.425781 554.417969 304.996094 C 554.65625 305.566406 554.863281 306.144531 555.042969 306.734375 C 555.226562 307.328125 555.375 307.925781 555.5 308.53125 C 555.621094 309.136719 555.710938 309.746094 555.773438 310.359375 C 555.835938 310.976562 555.867188 311.589844 555.871094 312.210938 C 555.871094 312.828125 555.84375 313.441406 555.785156 314.058594 C 555.726562 314.671875 555.640625 315.285156 555.519531 315.890625 C 555.402344 316.496094 555.253906 317.09375 555.078125 317.6875 C 554.898438 318.277344 554.695312 318.859375 554.460938 319.433594 C 554.226562 320.003906 553.964844 320.5625 553.675781 321.109375 C 553.386719 321.65625 553.074219 322.183594 552.730469 322.699219 C 552.390625 323.214844 552.027344 323.710938 551.636719 324.191406 C 551.246094 324.671875 550.835938 325.128906 550.398438 325.570312 L 363.511719 512.636719 C 362.640625 513.519531 361.691406 514.304688 360.664062 514.996094 C 359.632812 515.691406 358.546875 516.273438 357.402344 516.753906 C 356.257812 517.230469 355.078125 517.589844 353.863281 517.832031 C 352.648438 518.074219 351.417969 518.195312 350.179688 518.195312 L 350.117188 518.195312 C 347.628906 518.203125 345.234375 517.730469 342.929688 516.78125 C 340.628906 515.832031 338.597656 514.476562 336.835938 512.71875 C 336.070312 511.953125 335.375 511.132812 334.753906 510.246094 L 257.789062 418.777344 C 257.421875 418.277344 257.082031 417.757812 256.765625 417.226562 C 256.449219 416.691406 256.160156 416.140625 255.898438 415.578125 C 255.632812 415.015625 255.402344 414.4375 255.195312 413.851562 C 254.992188 413.265625 254.816406 412.671875 254.667969 412.066406 C 254.523438 411.464844 254.40625 410.855469 254.320312 410.238281 C 254.234375 409.625 254.175781 409.003906 254.152344 408.386719 C 254.125 407.765625 254.132812 407.144531 254.167969 406.523438 C 254.203125 405.902344 254.269531 405.285156 254.367188 404.671875 C 254.464844 404.058594 254.589844 403.453125 254.746094 402.851562 C 254.90625 402.25 255.089844 401.65625 255.304688 401.074219 C 255.523438 400.492188 255.765625 399.921875 256.039062 399.363281 C 256.308594 398.804688 256.609375 398.257812 256.933594 397.730469 C 257.257812 397.199219 257.609375 396.6875 257.984375 396.195312 C 258.363281 395.699219 258.761719 395.226562 259.183594 394.769531 C 259.605469 394.316406 260.050781 393.882812 260.515625 393.472656 C 260.984375 393.058594 261.46875 392.671875 261.972656 392.308594 C 262.476562 391.945312 262.996094 391.609375 263.535156 391.296875 C 264.070312 390.984375 264.621094 390.699219 265.1875 390.441406 C 265.753906 390.183594 266.332031 389.957031 266.917969 389.753906 C 267.507812 389.554688 268.101562 389.382812 268.707031 389.242188 C 269.3125 389.101562 269.921875 388.988281 270.539062 388.90625 C 271.15625 388.828125 271.773438 388.777344 272.394531 388.757812 C 273.015625 388.734375 273.636719 388.746094 274.257812 388.789062 C 274.875 388.828125 275.492188 388.898438 276.105469 389.003906 C 276.71875 389.105469 277.324219 389.234375 277.925781 389.398438 C 278.523438 389.558594 279.113281 389.75 279.695312 389.972656 C 280.277344 390.191406 280.84375 390.441406 281.402344 390.714844 C 281.957031 390.992188 282.5 391.296875 283.027344 391.625 C 283.554688 391.957031 284.0625 392.308594 284.554688 392.691406 C 285.042969 393.070312 285.515625 393.472656 285.96875 393.902344 C 286.417969 394.328125 286.847656 394.773438 287.257812 395.242188 C 287.664062 395.714844 288.046875 396.203125 288.40625 396.707031 Z M 713.359375 456.300781 C 713.816406 512.496094 681.160156 578.796875 621.398438 642.980469 C 595.648438 670.570312 567.445312 695.367188 536.785156 717.375 L 535.464844 718.234375 C 534.921875 718.535156 534.417969 718.890625 533.949219 719.296875 L 532.699219 720.292969 C 514.527344 733.40625 495.515625 745.152344 475.664062 755.535156 C 455.808594 765.914062 435.3125 774.828125 414.179688 782.265625 L 408.804688 784.046875 L 403.394531 782.347656 C 390.460938 778.222656 377.777344 773.429688 365.351562 767.964844 C 364.582031 767.566406 363.792969 767.21875 362.984375 766.914062 L 361.921875 766.472656 C 346.226562 759.171875 330.894531 751.160156 315.9375 742.441406 C 300.976562 733.722656 286.453125 724.335938 272.359375 714.277344 C 258.269531 704.214844 244.671875 693.527344 231.566406 682.210938 C 218.460938 670.898438 205.90625 659.003906 193.898438 646.527344 C 168.445312 620.601562 146.6875 591.875 128.617188 560.355469 L 127.957031 559.035156 C 127.675781 558.445312 127.339844 557.886719 126.957031 557.355469 L 126.226562 556.136719 C 122.078125 548.941406 118.375 541.519531 115.125 533.875 C 111.871094 526.230469 109.089844 518.417969 106.78125 510.4375 C 104.476562 502.457031 102.65625 494.363281 101.328125 486.164062 C 100 477.960938 99.171875 469.710938 98.839844 461.410156 L 96.632812 191.089844 L 97.949219 190.371094 L 402.496094 26.164062 L 403.664062 26.773438 L 711.109375 186.089844 Z M 676.375 207.414062 L 402.855469 65.734375 L 131.785156 211.878906 L 133.84375 461.128906 C 134.167969 467.957031 134.894531 474.742188 136.027344 481.484375 C 137.160156 488.226562 138.691406 494.875 140.621094 501.433594 C 142.550781 507.992188 144.863281 514.410156 147.558594 520.691406 C 150.257812 526.972656 153.316406 533.070312 156.746094 538.984375 C 157.785156 540.589844 158.710938 542.253906 159.523438 543.984375 C 176.066406 572.605469 195.917969 598.707031 219.085938 622.289062 C 230.28125 633.925781 241.988281 645.023438 254.207031 655.585938 C 266.421875 666.144531 279.097656 676.121094 292.230469 685.519531 C 305.363281 694.914062 318.902344 703.6875 332.84375 711.835938 C 346.78125 719.988281 361.066406 727.480469 375.699219 734.320312 C 377.265625 734.898438 378.792969 735.5625 380.285156 736.316406 C 389.621094 740.316406 399.40625 744.125 408.484375 747.183594 C 426.863281 740.351562 444.710938 732.328125 462.015625 723.109375 C 479.324219 713.890625 495.941406 703.558594 511.867188 692.117188 C 513.496094 690.769531 515.214844 689.550781 517.023438 688.457031 C 545.539062 667.917969 571.789062 644.804688 595.769531 619.121094 C 649.417969 561.503906 678.734375 503.769531 678.351562 456.550781 Z M 676.375 207.414062 " fill-opacity="1" fill-rule="nonzero"/></g></svg>